<svg version="1.1" id="Layer_1" xmlns="http://www.w3.org/2000/svg" xmlns:xlink="http://www.w3.org/1999/xlink" x="0px" y="0px"
	 width="100%" viewBox="0 0 240 256" enable-background="new 0 0 240 256" xml:space="preserve">
<path fill="#000000" opacity="1.000000" stroke="none" 
	d="
M142.088989,211.367050 
	C102.954613,217.688477 70.544960,206.222672 46.727955,174.995026 
	C17.152348,136.216995 21.553865,82.897934 56.672779,49.056900 
	C78.414276,28.106520 105.036446,19.631653 135.075546,23.528547 
	C172.572830,28.392975 198.861694,48.765659 212.525284,83.774742 
	C233.500473,137.517746 202.239044,197.290115 145.424179,210.586487 
	C144.451813,210.814041 143.483307,211.058121 142.088989,211.367050 
M179.974243,60.522011 
	C160.180649,41.829021 136.876831,34.410030 109.860085,38.283497 
	C65.859711,44.591949 34.260384,90.631126 43.721054,134.023758 
	C52.915592,176.195709 93.832520,203.550934 133.775665,197.805618 
	C173.677551,192.066238 204.616577,158.567535 204.439957,116.901878 
	C204.348465,95.321716 196.058838,76.393837 179.974243,60.522011 
z"/>
</svg>