<svg xmlns="http://www.w3.org/2000/svg" xmlns:xlink="http://www.w3.org/1999/xlink" xmlns:inkscape="http://www.inkscape.org/namespaces/inkscape" version="1.1" width="1080" height="1080" viewBox="0 0 1080 1080">
<defs>
<clipPath id="clip_0">
<path transform="matrix(1,0,0,-1,0,1080)" d="M0 1080H1080V0H0Z"/>
</clipPath>
</defs>
<g inkscape:groupmode="layer" inkscape:label="Capa 1">
<g clip-path="url(#clip_0)">
<path transform="matrix(1,0,0,-1,574.98,202.84809)" d="M0 0C-8.942 9.9-21.657 15.559-34.991 15.559-48.34 15.559-61.054 9.9-69.982 0L-279.826-232.542C-292.316-246.369-295.469-266.251-287.908-283.274-280.347-300.298-263.464-311.268-244.835-311.268H-145.764V-498.639C-145.764-524.673-124.658-545.781-98.622-545.781H28.654C54.688-545.781 75.789-524.673 75.789-498.639V-311.268H174.867C193.496-311.268 210.372-300.298 217.94-283.274 225.509-266.251 222.341-246.369 209.864-232.542Z" fill="#f44565"/>
<path transform="matrix(1,0,0,-1,888.2823,608.9801)" d="M0 0C-21.939 0-39.725-17.784-39.725-39.723V-173.237C-39.725-190.376-53.619-204.27-70.758-204.27H-625.807C-642.946-204.27-656.84-190.376-656.84-173.237V-39.723C-656.84-17.784-674.624 0-696.563 0-718.503 0-736.288-17.784-736.288-39.723V-173.25C-736.288-234.266-686.825-283.731-625.807-283.731H-70.771C-9.746-283.731 39.723-234.261 39.723-173.237V-39.723C39.723-17.784 21.938 0 0 0" fill="#f44565"/>
</g>
</g>
</svg>
